<?xml version="1.0" encoding="UTF-8" standalone="no"?>
<svg
   version="1.1"
   style="display:block"
   viewBox="0 0 868.38904 1072.6804"
   width="434.19452"
   height="536.34021"
   id="svg4"
   sodipodi:docname="Rust_Gate_Rune_no_background.svg"
   inkscape:version="1.2.2 (b0a8486541, 2022-12-01)"
   xmlns:inkscape="http://www.inkscape.org/namespaces/inkscape"
   xmlns:sodipodi="http://sodipodi.sourceforge.net/DTD/sodipodi-0.dtd"
   xmlns="http://www.w3.org/2000/svg"
   xmlns:svg="http://www.w3.org/2000/svg">
  <defs
     id="defs8" />
  <sodipodi:namedview
     id="namedview6"
     pagecolor="#ffffff"
     bordercolor="#666666"
     borderopacity="1.0"
     inkscape:showpageshadow="2"
     inkscape:pageopacity="0.0"
     inkscape:pagecheckerboard="0"
     inkscape:deskcolor="#d1d1d1"
     showgrid="false"
     inkscape:zoom="2.9023437"
     inkscape:cx="170.55182"
     inkscape:cy="201.21669"
     inkscape:window-width="3840"
     inkscape:window-height="2043"
     inkscape:window-x="0"
     inkscape:window-y="0"
     inkscape:window-maximized="1"
     inkscape:current-layer="svg4" />
  <path
     fill="#13abae"
     d="m 384.87148,90.67841 c -0.059,-12.514 -6.354,-61.407 0.779,-68.505 6.595,-6.562 51.55752,-17.1279999 63.5827,-18.8964199 4.74,-2.167 31.9058,-3.55113003 37.0658,-3.23113003 20.2666,1.60063003 78.9135,11.10554993 86.9935,20.73154993 7.18,8.557 4.65,55.371 5.98,68.873 23.31,10.696 46.07,22.22 67.49,36.397 5.38,3.566 18.69,16.033 23.7,16.812 6.51,-3.847 12.21,-9.286 18.06,-14.056 14.4,-11.731 30.46,-25.76 46.91,-34.465 10.59,7.88 19.37,18.027 29.05,26.972 26.94,24.888 54.57,50.32 79.79,76.94 -8.23,23.711 -27.49,43.943 -38.01,66.797 17.32,24.654 30.54,50.815 46.34,76.301 -30.3,20.985 -60.3,42.779 -90.13,64.454 -16.01,11.637 -31.97,25.018 -49.19,34.699 l -0.74,-1.14 c -5.72,-8.98 -10.05,-18.839 -15.09,-28.215 -9.46,-17.619 -19.79,-35.43 -30.98,-52.005 -36.49,-52.926 -85.26,-96.224 -142.13,-126.188 -10.68,-5.643 -21.31,-11.905 -33.17,-14.749 -4.93,-1.181 -9.89,-1.495 -14.88,-0.52 -18.967,3.704 -52.313,22.974 -69.056,33.584 -86.492,54.816 -160.617,153.583 -182.832,254.375 -3.483,15.803 -6.258,32.392 -7.031,48.557 -1.366,28.57 -0.349,57.62 -0.355,86.24 l -0.006,162.97 c -0.029,21.82 0.021,43.65 -0.31,65.46 -0.256,16.88 -2.668,36 0.728,52.56 19.176,0.18 90.9423,1.8187 96.1973,-1.6913 l 19.65298,1.0439 c -1.278,-44.75 0.44232,-90.7926 0.14632,-135.5626 -0.387,-58.6 -1.01246,-116.1875 0.14154,-174.7875 -1.78,-27.57 -0.007,-52.5923 -0.0758,-80.2683 -0.083,-32.894 -1.344,-69.63862 0.651,-102.45262 12.523,-11.715 60.93564,-32.00558 79.36264,-31.42558 7.452,0.235 14.499,3.354 20.631,7.428 10.235,6.801 19.722,15.841 29.18502,23.708 16.49,13.674 33.06,27.251 49.71,40.732 l 65.37,53.509 c 11.94,9.755 25.78,19.202 36.08,30.587 9.64,10.65 9.82,39.98 8.65,53.96 -0.36,4.24 -0.85,8.08 -3.14,11.76 -7.89,12.65 -59.09,53.31 -73.83,65.54 -5.42,4.49 -13.13,9.4 -16.37,15.85 3.04,10.56 26.54,41.13 33.88,51.94 l 75.39,112.02 c 13.01,19.48 27.59,38.93 38.86,59.44 26.38,0.37 54.86,2.77 80.99,-0.03 2.3,-26.96 1.28,-54.74 1.42,-81.82 0.33,-62.35 -0.89,-124.7 -0.32,-187.05 -0.36,-0.06 -0.73,-0.12 -1.1,-0.18 -9.08,-1.33 -29.7,1.43 -36.54,-2.73 -1.24,-3.19 -1.38,-6.29 -1.32,-9.7 0.33,-18.64 2.64,-37.49 3.73,-56.13 0.99,-16.99 0.77,-34.12 1.96,-51.06 0.2,-2.731 0.45,-5.641 1.55,-8.175 0.32,-0.748 0.62,-1.334 1.4,-1.676 7.01,-3.079 124.9254,-2.761 138.2754,-0.298 1.23,27.229 -0.6226,55.8416 -0.6526,83.1116 l -0.6913,139.0474 c 0.12,73.42 -0.18,146.83 -0.92,220.25 -0.2066,40.84739 0.065,105.77319 -1.6512,103.96229 -0.1396,3.0527 -9.1748,1.7155 -40.2771,2.3977 l -121.3032,-0.01 -338.76002,-1.88 -178.89558,0.7296 c -31.49,-0.02 -44.97967,-0.9175 -66.31852,-8.1544 -14.37274,-4.7559 -31.670919,-15.3435 -36.193119,-20.8424 -20.36219,-24.6359 -21.09917,-54.24779 -21.83249,-73.36369 -0.81793,-21.3215 -0.88956,-29.2456 -0.37956,-63.9256 0.226,-15.31 0.23727,-31.0135 0.42927,-46.3335 0.268,-21.42 -0.75,-42.79 -0.758,-64.2 -0.47,-82.31 -0.163,-164.63 0.919,-246.93 -16.579,-16.537 -48.867,-28.775 -60.67999967,-48.206 -0.283,-15.912 16.86399967,-111.215 23.37799967,-122.832 4.831,-3.949 66.67,-2.592 76.894999,-2.975 10.012,-30.852 24.201,-60.188 42.172,-87.19 4.704,-7.003 10.038,-13.455 14.885,-20.318 -8.245,-15.272 -37.125,-56.54 -39.963,-69.85 1.437,-3.019 3.407,-5.181 5.772,-7.516 17.01,-16.792 36.226,-31.934 54.037,-47.929 15.675,-14.078 30.501,-29.449 46.697,-42.898 2.359,-1.959 4.986,-4.021 7.854,-5.147 1.938,-0.761 2.713,-0.521 4.692,0.261 14.318,5.659 42.616,40.012 59.167,49.458 26.469,-23.347 57.777,-37.027 89.282,-51.95 z m 56.669,680.162 c -1.889,25.19 -0.551,51.26 -0.561,76.56 -0.007,21.11 -2.315,53.28 1.776,73.18 l 0.552,-0.79 -0.171,1.8 c 12.2,1.99 26.356,0.51 38.826,0.53 l 72.79,0.32 c 10.94,0.08 21.95,0.44 32.87,-0.48 -6.19,-12.53 -109.44,-172.16 -114.65,-177.09 -10.82,8.21 -21.093,17.17 -31.432,25.97 z m 0.913,-100.33 c 17.929,-14.55 34.459,-31.55 53.149,-45.08 15.67,-13.43 31.98,-26.34 47.42,-40 -16.54,-17.22 -39.01,-33.47 -57.48,-48.892 -13.29,-11.087 -28.768,-26.35 -43.144,-35.458 -2.617,13.618 -2.88,155.95 0.055,169.43 z"
     id="path2"
     sodipodi:nodetypes="cccccccccccccccccccccccssccscccccccccccccccccccccccccccccccccccccccccsccccccccccccsscccccccccccccccccccc"
     style="fill:#0cd6d6;fill-opacity:1" />
</svg>
